<svg width="28" height="28" viewBox="0 0 28 28" fill="none" xmlns="http://www.w3.org/2000/svg">
<circle cx="14" cy="14" r="14" fill="#FFEC09"/>
<path d="M12 6C10.8667 6 10 6.86667 10 8C10 9.13333 10.8667 10 12 10C12.8667 10 13.6 9.46667 13.8667 8.66667H15.3333V10H16.6667V8.66667H18V7.33333H13.8667C13.6 6.53333 12.8667 6 12 6ZM12 7.33333C12.4 7.33333 12.6667 7.6 12.6667 8C12.6667 8.4 12.4 8.66667 12 8.66667C11.6 8.66667 11.3333 8.4 11.3333 8C11.3333 7.6 11.6 7.33333 12 7.33333ZM10.3333 11.3333C9.86667 11.3333 9.53333 11.6 9.4 12L8 16V21.3333C8 21.7333 8.26667 22 8.66667 22H9.33333C9.73333 22 10 21.7333 10 21.3333V20.6667H18V21.3333C18 21.7333 18.2667 22 18.6667 22H19.3333C19.7333 22 20 21.7333 20 21.3333V16L18.6 12C18.4667 11.6 18.0667 11.3333 17.6667 11.3333H10.3333ZM10.3333 12.3333H17.6667L18.6667 15.3333H9.33333L10.3333 12.3333ZM10.3333 16.6667C10.8667 16.6667 11.3333 17.1333 11.3333 17.6667C11.3333 18.2 10.8667 18.6667 10.3333 18.6667C9.8 18.6667 9.33333 18.2 9.33333 17.6667C9.33333 17.1333 9.8 16.6667 10.3333 16.6667ZM17.6667 16.6667C18.2 16.6667 18.6667 17.1333 18.6667 17.6667C18.6667 18.2 18.2 18.6667 17.6667 18.6667C17.1333 18.6667 16.6667 18.2 16.6667 17.6667C16.6667 17.1333 17.1333 16.6667 17.6667 16.6667Z" fill="#030712"/>
</svg>
