<svg width="15" height="15" viewBox="0 0 15 15" fill="none" xmlns="http://www.w3.org/2000/svg">
<path d="M7.33399 0.333334C11.2001 0.333334 14.334 3.46723 14.334 7.33333C14.334 11.1994 11.2001 14.3333 7.33399 14.3333C6.09692 14.3355 4.8816 14.0081 3.81299 13.3848L0.336795 14.3333L1.28319 10.8557C0.659466 9.78678 0.331827 8.57094 0.333995 7.33333C0.333995 3.46723 3.46789 0.333334 7.33399 0.333334ZM4.94839 4.04333L4.80839 4.04893C4.71788 4.05517 4.62943 4.07894 4.54799 4.11893C4.47209 4.16199 4.40279 4.21574 4.34219 4.27853C4.25819 4.35763 4.21059 4.42623 4.15949 4.49273C3.90058 4.82936 3.76117 5.24265 3.76329 5.66733C3.76469 6.01033 3.85429 6.34423 3.99429 6.65643C4.28059 7.28783 4.75169 7.95633 5.37329 8.57583C5.52309 8.72493 5.67009 8.87473 5.82829 9.01403C6.60069 9.69401 7.52109 10.1844 8.51629 10.4462L8.91389 10.5071C9.04339 10.5141 9.17289 10.5043 9.30309 10.498C9.50692 10.4873 9.70593 10.4321 9.88619 10.3363C9.97778 10.289 10.0672 10.2376 10.1543 10.1823C10.1543 10.1823 10.1839 10.1623 10.2418 10.1193C10.3363 10.0493 10.3944 9.99963 10.4728 9.91773C10.5316 9.85706 10.5806 9.78659 10.6198 9.70633C10.6744 9.59223 10.729 9.37453 10.7514 9.19323C10.7682 9.05463 10.7633 8.97903 10.7612 8.93213C10.7584 8.85723 10.6961 8.77953 10.6282 8.74663L10.2208 8.56393C10.2208 8.56393 9.61179 8.29863 9.23939 8.12923C9.20041 8.11226 9.15866 8.10253 9.11619 8.10053C9.06829 8.09552 9.01987 8.10086 8.97422 8.1162C8.92857 8.13154 8.88675 8.15651 8.85159 8.18943C8.84809 8.18803 8.80119 8.22793 8.29509 8.84113C8.26604 8.88016 8.22603 8.90966 8.18015 8.92587C8.13427 8.94207 8.08461 8.94425 8.03749 8.93213C7.99187 8.91997 7.94718 8.90453 7.90379 8.88593C7.81699 8.84953 7.78689 8.83553 7.72739 8.81033C7.3255 8.63526 6.9535 8.39836 6.62489 8.10823C6.53669 8.03123 6.45479 7.94723 6.37079 7.86603C6.09542 7.60227 5.85542 7.30392 5.65679 6.97843L5.61549 6.91193C5.58627 6.86699 5.56232 6.81884 5.54409 6.76843C5.51749 6.66553 5.58679 6.58293 5.58679 6.58293C5.58679 6.58293 5.75689 6.39673 5.83599 6.29593C5.91299 6.19793 5.97809 6.10273 6.02009 6.03483C6.10269 5.90183 6.12859 5.76533 6.08519 5.65963C5.88919 5.18083 5.68666 4.7046 5.47759 4.23093C5.43629 4.13713 5.31379 4.06993 5.20249 4.05663C5.16469 4.05196 5.12689 4.04823 5.08909 4.04543C4.9951 4.04004 4.90086 4.04098 4.80699 4.04823L4.94839 4.04333Z" fill="#030712"/>
</svg>
