<svg width="15" height="15" viewBox="0 0 15 15" fill="none" xmlns="http://www.w3.org/2000/svg">
<path fill-rule="evenodd" clip-rule="evenodd" d="M8.73325 14.3333H5.93325C3.29355 14.3333 1.97335 14.3333 1.15365 13.5129C0.333252 12.6932 0.333252 11.373 0.333252 8.73333V5.93333C0.333252 3.29363 0.333252 1.97343 1.15365 1.15373C1.97335 0.333334 3.30055 0.333334 5.95425 0.333334C6.37845 0.333334 6.71795 0.333334 7.00425 0.345234C6.99515 0.401234 6.99025 0.457934 6.99025 0.516034L6.98325 2.49983C6.98325 3.26773 6.98325 3.94673 7.05675 4.49343C7.13655 5.08633 7.31925 5.67923 7.80365 6.16363C8.28665 6.64663 8.88025 6.83003 9.47315 6.90983C10.0199 6.98333 10.6989 6.98333 11.4668 6.98333H14.3032C14.3333 7.35713 14.3333 7.81633 14.3333 8.42743V8.73333C14.3333 11.373 14.3333 12.6932 13.5129 13.5129C12.6932 14.3333 11.373 14.3333 8.73325 14.3333Z" fill="white"/>
<path d="M12.4797 4.26523L9.70765 1.77113C8.91875 1.06063 8.52465 0.705034 8.03955 0.519534L8.03325 2.43333C8.03325 4.08323 8.03325 4.90853 8.54565 5.42093C9.05805 5.93333 9.88335 5.93333 11.5333 5.93333H14.0393C13.7859 5.44053 13.3309 5.03173 12.4797 4.26523Z" fill="white"/>
</svg>
