<svg width="28" height="28" viewBox="0 0 28 28" fill="none" xmlns="http://www.w3.org/2000/svg">
<circle cx="14" cy="14" r="14" fill="#FFEC09"/>
<path d="M22.7549 12.1534L22.3113 11.3784C22.2913 11.3442 22.2587 11.3193 22.2204 11.3092C22.1822 11.299 22.1415 11.3044 22.1072 11.3241L21.1582 11.8782L19.6925 7.83113C19.6151 7.58964 19.4629 7.37899 19.258 7.2296C19.0531 7.08021 18.806 6.99981 18.5525 7H10.4415C9.79193 7 9.21539 7.41931 9.01509 8.03891L7.61865 11.8801L6.66772 11.326C6.63343 11.3062 6.59273 11.3009 6.55451 11.311C6.51628 11.3212 6.48362 11.3461 6.46368 11.3803L6.02004 12.1534C5.97886 12.2245 6.00319 12.3143 6.07432 12.3555L7.20496 13.0144L6.93353 13.7632C6.91107 13.8231 6.89984 13.8867 6.89984 13.9504V20.4684C6.89984 20.7623 7.12072 21 7.39215 21H8.65756C8.8878 21 9.0881 20.8259 9.13677 20.5826L9.2809 19.8769H19.494L19.6382 20.5826C19.6887 20.8259 19.8871 21 20.1174 21H21.3828C21.6542 21 21.8751 20.7623 21.8751 20.4684V13.9504C21.8751 13.8867 21.8639 13.8231 21.8414 13.7632L21.57 13.0144L22.6987 12.3555C22.7327 12.3359 22.7576 12.3037 22.7681 12.2659C22.7786 12.2281 22.7739 12.1877 22.7549 12.1534ZM9.74514 16.0394C9.33144 16.0394 8.99637 15.7044 8.99637 15.2907C8.99637 14.877 9.33144 14.5419 9.74514 14.5419C10.1588 14.5419 10.4939 14.877 10.4939 15.2907C10.4939 15.7044 10.1588 16.0394 9.74514 16.0394ZM17.0081 17.4434C17.0081 17.5257 16.9407 17.5931 16.8584 17.5931H11.9165C11.8342 17.5931 11.7668 17.5257 11.7668 17.4434V15.871C11.7668 15.7886 11.8342 15.7212 11.9165 15.7212H12.6653C12.7477 15.7212 12.8151 15.7886 12.8151 15.871V16.5449H15.9599V15.871C15.9599 15.7886 16.0273 15.7212 16.1096 15.7212H16.8584C16.9407 15.7212 17.0081 15.7886 17.0081 15.871V17.4434ZM19.0298 16.0394C18.6161 16.0394 18.281 15.7044 18.281 15.2907C18.281 14.877 18.6161 14.5419 19.0298 14.5419C19.4435 14.5419 19.7786 14.877 19.7786 15.2907C19.7786 15.7044 19.4435 16.0394 19.0298 16.0394ZM8.9215 12.2395L10.2824 8.49753L10.2917 8.47319L10.2992 8.44886C10.3198 8.38708 10.376 8.3459 10.4415 8.3459H18.4458L19.8572 12.2395H8.9215Z" fill="#030712"/>
</svg>
