<svg width="28" height="28" viewBox="0 0 28 28" fill="none" xmlns="http://www.w3.org/2000/svg">
<circle cx="14" cy="14" r="14" fill="#FFEC09"/>
<path d="M19.7273 16.8127V19.0629C19.7273 19.224 19.6663 19.3791 19.5564 19.497C19.4466 19.6149 19.2961 19.6867 19.1354 19.698C18.8576 19.7175 18.6306 19.7273 18.4545 19.7273C12.831 19.7273 8.27271 15.169 8.27271 9.54543C8.27271 9.3698 8.28246 9.14283 8.30198 8.86452C8.31326 8.70381 8.38507 8.55335 8.50294 8.44351C8.62081 8.33367 8.77596 8.27263 8.93707 8.27271H11.1873C11.2662 8.27263 11.3423 8.30189 11.4009 8.35481C11.4595 8.40773 11.4963 8.48053 11.5042 8.55907C11.5186 8.70501 11.5322 8.8221 11.5449 8.91034C11.6713 9.79293 11.9305 10.6513 12.3136 11.4564C12.3741 11.5837 12.3346 11.7358 12.2201 11.8173L10.8468 12.7985C11.6866 14.7549 13.2457 16.314 15.2021 17.1538L16.1821 15.7831C16.222 15.7269 16.2804 15.6865 16.3471 15.6692C16.4138 15.6519 16.4845 15.6586 16.5467 15.6883C17.3517 16.0706 18.2099 16.3292 19.0922 16.4551C19.1804 16.4678 19.2971 16.4814 19.4422 16.4958C19.5206 16.5038 19.5932 16.5407 19.646 16.5993C19.6988 16.6578 19.7273 16.7339 19.7273 16.8127Z" fill="#030712"/>
</svg>
