<svg width="16" height="17" viewBox="0 0 16 17" fill="none" xmlns="http://www.w3.org/2000/svg">
<path d="M8.82264 0.666473C9.72262 0.668873 10.1794 0.673673 10.5738 0.684873L10.729 0.690473C10.9082 0.696873 11.085 0.704872 11.2986 0.714472C12.1498 0.754471 12.7305 0.888868 13.2401 1.08646C13.7681 1.28966 14.2129 1.56485 14.6577 2.00884C15.0646 2.40862 15.3794 2.8924 15.5801 3.42641C15.7777 3.93599 15.9121 4.51678 15.9521 5.36876C15.9617 5.58155 15.9697 5.75835 15.9761 5.93835L15.9809 6.09354C15.9929 6.48713 15.9977 6.94392 15.9993 7.8439L16.0001 8.44068V9.48866C16.002 10.0722 15.9959 10.6557 15.9817 11.239L15.9769 11.3942C15.9705 11.5742 15.9625 11.751 15.9529 11.9638C15.9129 12.8158 15.7769 13.3958 15.5801 13.9062C15.3794 14.4402 15.0646 14.9239 14.6577 15.3237C14.2579 15.7307 13.7741 16.0454 13.2401 16.2461C12.7305 16.4437 12.1498 16.5781 11.2986 16.6181L10.729 16.6421L10.5738 16.6469C10.1794 16.6581 9.72262 16.6637 8.82264 16.6653L8.22586 16.6661H7.17868C6.5949 16.6681 6.01113 16.662 5.42752 16.6477L5.27233 16.6429C5.08242 16.6357 4.89255 16.6274 4.70274 16.6181C3.85156 16.5781 3.27078 16.4437 2.76039 16.2461C2.22667 16.0453 1.74317 15.7306 1.34362 15.3237C0.936389 14.924 0.621327 14.4402 0.420445 13.9062C0.22285 13.3966 0.0884529 12.8158 0.0484538 11.9638L0.0244544 11.3942L0.0204546 11.239C0.00570781 10.6557 -0.000959413 10.0722 0.000455027 9.48866V7.8439C-0.00175924 7.26039 0.00410791 6.67689 0.0180547 6.09354L0.0236545 5.93835C0.0300543 5.75835 0.0380541 5.58155 0.0476539 5.36876C0.0876529 4.51678 0.22205 3.93679 0.419645 3.42641C0.620995 2.89218 0.936611 2.40838 1.34442 2.00884C1.74374 1.60209 2.22695 1.28732 2.76039 1.08646C3.27078 0.888868 3.85076 0.754471 4.70274 0.714472C4.91554 0.704872 5.09313 0.696873 5.27233 0.690473L5.42752 0.685673C6.01086 0.671459 6.59437 0.665326 7.17788 0.667273L8.82264 0.666473ZM8.00026 4.66638C6.93942 4.66638 5.92203 5.08779 5.1719 5.83792C4.42178 6.58805 4.00036 7.60544 4.00036 8.66628C4.00036 9.72712 4.42178 10.7445 5.1719 11.4946C5.92203 12.2448 6.93942 12.6662 8.00026 12.6662C9.0611 12.6662 10.0785 12.2448 10.8286 11.4946C11.5787 10.7445 12.0002 9.72712 12.0002 8.66628C12.0002 7.60544 11.5787 6.58805 10.8286 5.83792C10.0785 5.08779 9.0611 4.66638 8.00026 4.66638ZM8.00026 6.26634C8.31543 6.26628 8.62752 6.32831 8.91871 6.44887C9.2099 6.56943 9.4745 6.74616 9.69739 6.96898C9.92029 7.1918 10.0971 7.45634 10.2178 7.74749C10.3384 8.03865 10.4005 8.35071 10.4006 8.66588C10.4007 8.98104 10.3386 9.29313 10.2181 9.58433C10.0975 9.87552 9.92078 10.1401 9.69796 10.363C9.47514 10.5859 9.2106 10.7627 8.91945 10.8834C8.62829 11.004 8.31623 11.0662 8.00106 11.0662C7.36456 11.0662 6.75412 10.8134 6.30405 10.3633C5.85397 9.91322 5.60112 9.30278 5.60112 8.66628C5.60112 8.02978 5.85397 7.41934 6.30405 6.96926C6.75412 6.51919 7.36376 6.26634 8.00026 6.26634ZM12.201 3.46641C11.9357 3.46641 11.6814 3.57176 11.4939 3.75929C11.3063 3.94682 11.201 4.20117 11.201 4.46638C11.201 4.73159 11.3063 4.98594 11.4939 5.17347C11.6814 5.361 11.9357 5.46636 12.201 5.46636C12.4662 5.46636 12.7205 5.361 12.908 5.17347C13.0956 4.98594 13.2009 4.73159 13.2009 4.46638C13.2009 4.20117 13.0956 3.94682 12.908 3.75929C12.7205 3.57176 12.4662 3.46641 12.201 3.46641Z" fill="#030712"/>
</svg>
