<svg width="28" height="28" viewBox="0 0 28 28" fill="none" xmlns="http://www.w3.org/2000/svg">
<circle cx="14" cy="14" r="14" fill="#FFEC09"/>
<path d="M14.4737 7.5249C14.4737 7.38568 14.4184 7.25218 14.32 7.15374C14.2215 7.0553 14.088 7 13.9488 7C13.8096 7 13.6761 7.0553 13.5777 7.15374C13.4792 7.25218 13.4239 7.38568 13.4239 7.5249V8.40252H12.0242C11.6994 8.40252 11.3878 8.53156 11.1582 8.76124C10.9285 8.99093 10.7994 9.30245 10.7994 9.62727V11.1355C11.8632 11.0389 12.899 11.8605 12.899 13.0552V20.4751C12.899 20.4938 12.8986 20.512 12.8976 20.5297V21H14.9972V20.1252H14.9986V14.8762C14.9986 14.3658 15.2014 13.8763 15.5623 13.5153C15.9232 13.1544 16.4128 12.9516 16.9232 12.9516H17.0982V9.62727C17.0982 9.30245 16.9691 8.99093 16.7395 8.76124C16.5098 8.53156 16.1983 8.40252 15.8734 8.40252H14.4737V7.5249ZM15.6971 21H18.6729C18.9977 21 19.3092 20.871 19.5389 20.6413C19.7686 20.4116 19.8976 20.1001 19.8976 19.7752V14.8762C19.8976 14.5514 19.7686 14.2399 19.5389 14.0102C19.3092 13.7805 18.9977 13.6515 18.6729 13.6515H16.9232C16.5984 13.6515 16.2869 13.7805 16.0572 14.0102C15.8275 14.2399 15.6985 14.5514 15.6985 14.8762V20.1252H15.6971V21ZM12.1992 20.1252H12.1978V21H9.22476C8.89993 21 8.58841 20.871 8.35872 20.6413C8.12904 20.4116 8 20.1001 8 19.7752V14.2044C8 13.7914 8.20786 13.4065 8.55289 13.1805L10.3025 12.032C11.1165 11.4966 12.1992 12.081 12.1992 13.0552V20.1252Z" fill="#030712"/>
</svg>
