<svg width="28" height="28" viewBox="0 0 28 28" fill="none" xmlns="http://www.w3.org/2000/svg">
<circle cx="14" cy="14" r="14" fill="#FFEC09"/>
<path d="M13.3 16.1V14.7H14.7V16.1H13.3ZM12.6 9.8H15.4V8.4H12.6V9.8ZM8.4 20.3C8.015 20.3 7.68553 20.163 7.4116 19.8891C7.13767 19.6152 7.00047 19.2855 7 18.9V16.1H11.9V16.8C11.9 16.9983 11.9672 17.1647 12.1016 17.2991C12.236 17.4335 12.4021 17.5005 12.6 17.5H15.4C15.5983 17.5 15.7647 17.4328 15.8991 17.2984C16.0335 17.164 16.1005 16.9979 16.1 16.8V16.1H21V18.9C21 19.285 20.863 19.6147 20.5891 19.8891C20.3152 20.1635 19.9855 20.3005 19.6 20.3H8.4ZM7 14.7V11.2C7 10.815 7.1372 10.4855 7.4116 10.2116C7.686 9.93767 8.01547 9.80047 8.4 9.8H11.2V8.4C11.2 8.015 11.3372 7.68553 11.6116 7.4116C11.886 7.13767 12.2155 7.00047 12.6 7H15.4C15.785 7 16.1147 7.1372 16.3891 7.4116C16.6635 7.686 16.8005 8.01547 16.8 8.4V9.8H19.6C19.985 9.8 20.3147 9.9372 20.5891 10.2116C20.8635 10.486 21.0005 10.8155 21 11.2V14.7H16.1V14C16.1 13.8017 16.0328 13.6355 15.8984 13.5016C15.764 13.3677 15.5979 13.3005 15.4 13.3H12.6C12.4017 13.3 12.2355 13.3672 12.1016 13.5016C11.9677 13.636 11.9005 13.8021 11.9 14V14.7H7Z" fill="#030712"/>
</svg>
