<svg width="44" height="44" viewBox="0 0 44 44" fill="none" xmlns="http://www.w3.org/2000/svg">
<circle cx="22" cy="22" r="22" fill="#FFEC09"/>
<path d="M31 26.42V29.956C31.0001 30.2092 30.9042 30.453 30.7316 30.6382C30.559 30.8234 30.3226 30.9363 30.07 30.954C29.6333 30.9847 29.2767 31 29 31C20.163 31 13 23.837 13 15C13 14.724 13.0153 14.3673 13.046 13.93C13.0637 13.6774 13.1766 13.441 13.3618 13.2684C13.547 13.0958 13.7908 12.9999 14.044 13H17.58C17.704 12.9999 17.8237 13.0459 17.9157 13.129C18.0078 13.2122 18.0656 13.3266 18.078 13.45C18.1007 13.6793 18.122 13.8633 18.142 14.002C18.3407 15.3889 18.748 16.7378 19.35 18.003C19.445 18.203 19.383 18.442 19.203 18.57L17.045 20.112C18.3647 23.1863 20.8147 25.6363 23.889 26.956L25.429 24.802C25.4917 24.7137 25.5835 24.6503 25.6883 24.6231C25.7932 24.5958 25.9042 24.6064 26.002 24.653C27.267 25.2539 28.6156 25.6601 30.002 25.858C30.1407 25.878 30.324 25.8993 30.552 25.922C30.6752 25.9346 30.7894 25.9926 30.8724 26.0846C30.9553 26.1766 31.0002 26.2961 31 26.42Z" fill="#030712"/>
</svg>
