<svg width="21" height="21" viewBox="0 0 21 21" fill="none" xmlns="http://www.w3.org/2000/svg">
<path d="M5.32305 16.7139L6.05671 17.1426C7.29393 17.8641 8.70109 18.2429 10.1333 18.24C11.7367 18.24 13.304 17.7646 14.6372 16.8738C15.9703 15.983 17.0094 14.7169 17.6229 13.2356C18.2365 11.7543 18.397 10.1243 18.0842 8.5518C17.7714 6.97926 16.9994 5.53479 15.8656 4.40105C14.7319 3.26732 13.2874 2.49523 11.7149 2.18243C10.1423 1.86964 8.51236 2.03018 7.03106 2.64375C5.54976 3.25732 4.28367 4.29638 3.3929 5.62951C2.50213 6.96264 2.02668 8.52999 2.02668 10.1333C2.02372 11.566 2.4029 12.9736 3.12513 14.211L3.55276 14.9446L2.89105 17.3777L5.32305 16.7139ZM0.00406689 20.2667L1.37409 15.2324C0.471353 13.6849 -0.00292917 11.9249 1.36113e-05 10.1333C1.36113e-05 4.53669 4.53671 0 10.1333 0C15.73 0 20.2667 4.53669 20.2667 10.1333C20.2667 15.73 15.73 20.2667 10.1333 20.2667C8.34256 20.2696 6.58329 19.7956 5.03628 18.8936L0.00406689 20.2667ZM6.47623 5.37877C6.61201 5.36864 6.74881 5.36864 6.8846 5.37472C6.93932 5.37877 6.99404 5.38485 7.04876 5.39093C7.20988 5.40917 7.38721 5.50747 7.447 5.64325C7.74897 6.32827 8.04284 7.01835 8.32657 7.71045C8.3894 7.86448 8.35191 8.06208 8.23233 8.25461C8.1501 8.3848 8.06114 8.51063 7.96583 8.63157C7.85132 8.77851 7.60508 9.04805 7.60508 9.04805C7.60508 9.04805 7.50476 9.16763 7.54327 9.31659C7.55745 9.37333 7.60407 9.45541 7.64663 9.52432L7.70641 9.62059C7.96583 10.0533 8.31441 10.4921 8.74001 10.9055C8.86161 11.023 8.98017 11.1436 9.10785 11.2561C9.58209 11.6746 10.1192 12.0161 10.6988 12.2694L10.7039 12.2715C10.79 12.309 10.8336 12.3292 10.9592 12.3829C11.022 12.4093 11.0869 12.4326 11.1528 12.4498C11.2208 12.4671 11.2925 12.4639 11.3587 12.4404C11.4249 12.417 11.4827 12.3744 11.5247 12.3181C12.2583 11.4294 12.3252 11.3716 12.3313 11.3716V11.3737C12.3822 11.3261 12.4428 11.29 12.5089 11.2678C12.5749 11.2456 12.645 11.2378 12.7143 11.245C12.7751 11.249 12.8369 11.2602 12.8937 11.2855C13.4317 11.5317 14.3123 11.9158 14.3123 11.9158L14.9021 12.1803C15.0014 12.2279 15.0916 12.3404 15.0946 12.4488C15.0987 12.5167 15.1048 12.6261 15.0815 12.8268C15.049 13.0892 14.97 13.4044 14.8909 13.5695C14.8368 13.6823 14.765 13.7856 14.6781 13.8756C14.5759 13.9829 14.464 14.0806 14.3437 14.1674C14.3022 14.1987 14.2599 14.2291 14.2171 14.2586C14.091 14.3386 13.9615 14.413 13.829 14.4815C13.5681 14.6201 13.2799 14.6997 12.9849 14.7146C12.7974 14.7247 12.6099 14.7389 12.4215 14.7288C12.4133 14.7288 11.8459 14.6406 11.8459 14.6406C10.4052 14.2617 9.07278 13.5518 7.95468 12.5674C7.72567 12.3657 7.51388 12.1489 7.29703 11.933C6.39516 11.0362 5.7142 10.0685 5.30076 9.15445C5.08914 8.70584 4.97484 8.21753 4.96535 7.7216C4.96117 7.10636 5.16229 6.50729 5.53687 6.0192C5.61084 5.92395 5.68076 5.82464 5.80135 5.71013C5.93004 5.58853 6.01111 5.52368 6.09927 5.47909C6.21648 5.42035 6.34435 5.38589 6.47521 5.37776L6.47623 5.37877Z" fill="#330099"/>
</svg>
