<svg width="17" height="18" viewBox="0 0 17 18" fill="none" xmlns="http://www.w3.org/2000/svg">
<path d="M8.82264 0.666504C9.72262 0.668904 10.1794 0.673704 10.5738 0.684903L10.729 0.690503C10.9082 0.696903 11.085 0.704903 11.2986 0.714503C12.1498 0.754502 12.7305 0.888899 13.2401 1.08649C13.7681 1.28969 14.2129 1.56488 14.6577 2.00887C15.0646 2.40865 15.3794 2.89243 15.5801 3.42644C15.7777 3.93602 15.9121 4.51681 15.9521 5.36879C15.9617 5.58158 15.9697 5.75838 15.9761 5.93838L15.9809 6.09357C15.9929 6.48716 15.9977 6.94395 15.9993 7.84393L16.0001 8.44072V9.48869C16.002 10.0722 15.9959 10.6557 15.9817 11.239L15.9769 11.3942C15.9705 11.5742 15.9625 11.751 15.9529 11.9638C15.9129 12.8158 15.7769 13.3958 15.5801 13.9062C15.3794 14.4402 15.0646 14.924 14.6577 15.3237C14.2579 15.7307 13.7741 16.0455 13.2401 16.2461C12.7305 16.4437 12.1498 16.5781 11.2986 16.6181L10.729 16.6421L10.5738 16.6469C10.1794 16.6581 9.72262 16.6637 8.82264 16.6653L8.22586 16.6661H7.17868C6.5949 16.6682 6.01113 16.662 5.42752 16.6477L5.27233 16.6429C5.08242 16.6357 4.89255 16.6275 4.70274 16.6181C3.85156 16.5781 3.27078 16.4437 2.76039 16.2461C2.22667 16.0454 1.74317 15.7306 1.34362 15.3237C0.936389 14.9241 0.621327 14.4403 0.420445 13.9062C0.22285 13.3966 0.0884529 12.8158 0.0484538 11.9638L0.0244544 11.3942L0.0204546 11.239C0.00570781 10.6557 -0.000959413 10.0722 0.000455027 9.48869V7.84393C-0.00175924 7.26042 0.00410791 6.67692 0.0180547 6.09357L0.0236545 5.93838C0.0300543 5.75838 0.0380541 5.58158 0.0476539 5.36879C0.0876529 4.51681 0.22205 3.93682 0.419645 3.42644C0.620995 2.89221 0.936611 2.40841 1.34442 2.00887C1.74374 1.60212 2.22695 1.28735 2.76039 1.08649C3.27078 0.888899 3.85076 0.754502 4.70274 0.714503C4.91554 0.704903 5.09313 0.696903 5.27233 0.690503L5.42752 0.685703C6.01086 0.67149 6.59437 0.665356 7.17788 0.667304L8.82264 0.666504ZM8.00026 4.66641C6.93942 4.66641 5.92203 5.08782 5.1719 5.83795C4.42178 6.58808 4.00036 7.60547 4.00036 8.66631C4.00036 9.72715 4.42178 10.7445 5.1719 11.4947C5.92203 12.2448 6.93942 12.6662 8.00026 12.6662C9.0611 12.6662 10.0785 12.2448 10.8286 11.4947C11.5787 10.7445 12.0002 9.72715 12.0002 8.66631C12.0002 7.60547 11.5787 6.58808 10.8286 5.83795C10.0785 5.08782 9.0611 4.66641 8.00026 4.66641ZM8.00026 6.26637C8.31543 6.26632 8.62752 6.32834 8.91871 6.4489C9.2099 6.56946 9.4745 6.74619 9.69739 6.96901C9.92029 7.19183 10.0971 7.45637 10.2178 7.74752C10.3384 8.03868 10.4005 8.35074 10.4006 8.66591C10.4007 8.98107 10.3386 9.29316 10.2181 9.58436C10.0975 9.87555 9.92078 10.1401 9.69796 10.363C9.47514 10.5859 9.2106 10.7628 8.91945 10.8834C8.62829 11.0041 8.31623 11.0662 8.00106 11.0663C7.36456 11.0663 6.75412 10.8134 6.30405 10.3633C5.85397 9.91325 5.60112 9.30281 5.60112 8.66631C5.60112 8.02981 5.85397 7.41937 6.30405 6.96929C6.75412 6.51922 7.36376 6.26637 8.00026 6.26637ZM12.201 3.46644C11.9357 3.46644 11.6814 3.57179 11.4939 3.75932C11.3063 3.94685 11.201 4.2012 11.201 4.46641C11.201 4.73162 11.3063 4.98597 11.4939 5.1735C11.6814 5.36103 11.9357 5.46639 12.201 5.46639C12.4662 5.46639 12.7205 5.36103 12.908 5.1735C13.0956 4.98597 13.2009 4.73162 13.2009 4.46641C13.2009 4.2012 13.0956 3.94685 12.908 3.75932C12.7205 3.57179 12.4662 3.46644 12.201 3.46644Z" fill="white"/>
</svg>
