<svg width="80" height="42" viewBox="0 0 80 42" fill="none" xmlns="http://www.w3.org/2000/svg">
<g clip-path="url(#clip0_64_357)">
<path d="M59.3763 23.7416L42.3381 40.8517C40.823 42.3732 38.3644 42.3732 36.8493 40.8517L34.1335 38.1531L29.3594 33.3588L19.8397 23.7416C18.3246 22.2201 18.3246 19.7512 19.8397 18.2297L36.8779 1.14832C38.393 -0.373211 40.8516 -0.373211 42.3667 1.14832L59.4049 18.2584C60.8914 19.7512 60.8914 22.2201 59.3763 23.7416Z" fill="url(#paint0_radial_64_357)"/>
<path d="M0 10.9091L0.0285875 27.8469H17.1239V23.2823L6.54655 23.2536L6.60372 10.9091H0Z" fill="#330099"/>
<path d="M17.1812 10.9091L17.124 23.2823C17.124 23.2823 18.0674 28.4498 24.0136 28.3636H31.1033C31.1033 28.3636 36.1919 27.8756 37.2211 23.7703V10.9091H30.6459V21.3301C30.6459 21.3301 30.8746 24.1722 27.1868 24.1722C23.5562 24.1722 23.7277 21.3876 23.7277 21.3876V10.9091H17.1812Z" fill="#330099"/>
<path d="M79.1874 10.9091V27.8469H71.8976L64.6078 18.3445V27.8469H51.8006L51.3146 26.5263L49.6851 22.0191L49.485 21.5024L49.1705 20.6699L47.4839 16.0478L45.0539 23.311L37.9928 27.8469H36.3347L43.596 10.9091H51.7434L58.3185 26.4689V10.9091H65.9228L72.7838 20.0957V10.9091H79.1874Z" fill="#330099"/>
<path d="M45.054 23.311L43.5389 27.8469H37.9929L45.054 23.311Z" fill="#330099"/>
<path d="M49.485 21.5024L34.1621 38.1531L29.3879 33.3301L37.9928 27.8469L45.0539 23.311L49.1705 20.6699L49.485 21.5024Z" fill="white"/>
<path d="M51.7721 27.8469V31.4067L45.3113 37.8947L38.3359 37.9521L49.6852 22.0191L51.3147 26.5263L51.7721 27.8469Z" fill="white"/>
</g>
<defs>
<radialGradient id="paint0_radial_64_357" cx="0" cy="0" r="1" gradientUnits="userSpaceOnUse" gradientTransform="translate(44.7207 19.0892) scale(22.1828 22.2764)">
<stop stop-color="#FFEC09"/>
<stop offset="0.8812" stop-color="#FFB80E"/>
<stop offset="0.9406" stop-color="#FFB80E"/>
</radialGradient>
<clipPath id="clip0_64_357">
<rect width="79.1875" height="42" fill="white"/>
</clipPath>
</defs>
</svg>
