<svg width="80" height="42" viewBox="0 0 80 42" fill="none" xmlns="http://www.w3.org/2000/svg">
<g clip-path="url(#clip0_64_504)">
<path d="M59.3763 23.7418L42.3381 40.8518C40.823 42.3734 38.3644 42.3734 36.8493 40.8518L34.1335 38.1533L29.3594 33.359L19.8397 23.7418C18.3246 22.2202 18.3246 19.7513 19.8397 18.2298L36.8779 1.14847C38.393 -0.373059 40.8516 -0.373059 42.3667 1.14847L59.4049 18.2585C60.8914 19.7513 60.8914 22.2202 59.3763 23.7418Z" fill="url(#paint0_radial_64_504)"/>
<path d="M0 10.9092L0.0285875 27.847H17.1239V23.2824L6.54655 23.2537L6.60372 10.9092H0Z" fill="white"/>
<path d="M17.1812 10.9092L17.124 23.2824C17.124 23.2824 18.0674 28.4499 24.0136 28.3637H31.1033C31.1033 28.3637 36.1919 27.8757 37.2211 23.7704V10.9092H30.6459V21.3302C30.6459 21.3302 30.8746 24.1723 27.1868 24.1723C23.5562 24.1723 23.7277 21.3876 23.7277 21.3876V10.9092H17.1812Z" fill="white"/>
<path d="M79.1874 10.9092V27.847H71.8976L64.6078 18.3446V27.847H51.8006L51.3146 26.5264L49.6851 22.0192L49.485 21.5025L49.1705 20.6699L47.4839 16.0479L45.0539 23.3111L37.9928 27.847H36.3347L43.596 10.9092H51.7434L58.3185 26.469V10.9092H65.9228L72.7838 20.0958V10.9092H79.1874Z" fill="white"/>
<path d="M45.054 23.311L43.5389 27.8469H37.9929L45.054 23.311Z" fill="white"/>
<path d="M49.485 21.5025L34.1621 38.1532L29.3879 33.3302L37.9928 27.847L45.0539 23.3111L49.1705 20.6699L49.485 21.5025Z" fill="white"/>
<path d="M51.7721 27.8468V31.4066L45.3113 37.8946L38.3359 37.9521L49.6852 22.019L51.3147 26.5262L51.7721 27.8468Z" fill="white"/>
</g>
<defs>
<radialGradient id="paint0_radial_64_504" cx="0" cy="0" r="1" gradientUnits="userSpaceOnUse" gradientTransform="translate(44.7207 19.0894) scale(22.1828 22.2764)">
<stop stop-color="#FFEC09"/>
<stop offset="0.8812" stop-color="#FFB80E"/>
<stop offset="0.9406" stop-color="#FFB80E"/>
</radialGradient>
<clipPath id="clip0_64_504">
<rect width="79.1875" height="42" fill="white"/>
</clipPath>
</defs>
</svg>
